<svg width="21" height="20" viewBox="0 0 21 20" fill="none" xmlns="http://www.w3.org/2000/svg">
<path d="M1 1L3.08 1.36L4.043 12.833C4.12 13.77 4.903 14.489 5.843 14.486H16.752C17.649 14.488 18.41 13.828 18.537 12.94L19.486 6.382C19.592 5.649 19.083 4.969 18.351 4.863C18.287 4.854 3.414 4.849 3.414 4.849" stroke="#130F26" stroke-width="1.5" stroke-linecap="round" stroke-linejoin="round"/>
<path d="M12.375 8.54492H15.148" stroke="#130F26" stroke-width="1.5" stroke-linecap="round" stroke-linejoin="round"/>
<path fill-rule="evenodd" clip-rule="evenodd" d="M5.40338 17.9521C5.70438 17.9521 5.94738 18.1961 5.94738 18.4961C5.94738 18.7971 5.70438 19.0411 5.40338 19.0411C5.10238 19.0411 4.85938 18.7971 4.85938 18.4961C4.85938 18.1961 5.10238 17.9521 5.40338 17.9521Z" fill="#130F26" stroke="#130F26" stroke-width="1.5" stroke-linecap="round" stroke-linejoin="round"/>
<path fill-rule="evenodd" clip-rule="evenodd" d="M16.6846 17.9521C16.9856 17.9521 17.2296 18.1961 17.2296 18.4961C17.2296 18.7971 16.9856 19.0411 16.6846 19.0411C16.3836 19.0411 16.1406 18.7971 16.1406 18.4961C16.1406 18.1961 16.3836 17.9521 16.6846 17.9521Z" fill="#130F26" stroke="#130F26" stroke-width="1.5" stroke-linecap="round" stroke-linejoin="round"/>
</svg>
