<svg width="22" height="20" viewBox="0 0 22 20" fill="none" xmlns="http://www.w3.org/2000/svg">
<path d="M8.07257 17.0271V14.5132C8.07255 13.8738 8.63322 13.3543 9.32788 13.35H11.8724C12.5704 13.35 13.1362 13.8708 13.1362 14.5132V14.5132V17.0349C13.1361 17.5778 13.6068 18.0215 14.1965 18.0343H15.8928C17.5839 18.0343 18.9548 16.7724 18.9548 15.2159V15.2159V8.06456C18.9458 7.45222 18.6334 6.87719 18.1066 6.50314L12.305 2.20141C11.2886 1.45239 9.84383 1.45239 8.82745 2.20141L3.05131 6.51094C2.52252 6.88348 2.20964 7.45946 2.20312 8.07237V15.2159C2.20312 16.7724 3.57401 18.0343 5.26508 18.0343H6.96145C7.56573 18.0343 8.05561 17.5834 8.05561 17.0271V17.0271" stroke="#130F26" stroke-width="1.5" stroke-linecap="round" stroke-linejoin="round"/>
</svg>
