<svg width="185" height="190" viewBox="0 0 185 190" fill="none" xmlns="http://www.w3.org/2000/svg">
<circle cx="92" cy="36" r="35" fill="white" stroke="#FFE060" stroke-width="2"/>
<path d="M37.627 102.312C37.627 100.995 37.912 99.823 38.482 98.797C39.052 97.7583 39.8437 96.954 40.857 96.384C41.883 95.8013 43.042 95.51 44.334 95.51C45.9173 95.51 47.2727 95.928 48.4 96.764C49.5273 97.6 50.281 98.74 50.661 100.184H47.089C46.823 99.6267 46.443 99.2023 45.949 98.911C45.4677 98.6197 44.9167 98.474 44.296 98.474C43.2953 98.474 42.4847 98.8223 41.864 99.519C41.2433 100.216 40.933 101.147 40.933 102.312C40.933 103.477 41.2433 104.408 41.864 105.105C42.4847 105.802 43.2953 106.15 44.296 106.15C44.9167 106.15 45.4677 106.004 45.949 105.713C46.443 105.422 46.823 104.997 47.089 104.44H50.661C50.281 105.884 49.5273 107.024 48.4 107.86C47.2727 108.683 45.9173 109.095 44.334 109.095C43.042 109.095 41.883 108.81 40.857 108.24C39.8437 107.657 39.052 106.853 38.482 105.827C37.912 104.801 37.627 103.629 37.627 102.312ZM52.0047 103.68C52.0047 102.591 52.2073 101.634 52.6127 100.811C53.0307 99.9877 53.5943 99.3543 54.3037 98.911C55.013 98.4677 55.8047 98.246 56.6787 98.246C57.426 98.246 58.0783 98.398 58.6357 98.702C59.2057 99.006 59.6427 99.405 59.9467 99.899V98.398H63.1957V109H59.9467V107.499C59.63 107.993 59.1867 108.392 58.6167 108.696C58.0593 109 57.407 109.152 56.6597 109.152C55.7983 109.152 55.013 108.93 54.3037 108.487C53.5943 108.031 53.0307 107.391 52.6127 106.568C52.2073 105.732 52.0047 104.769 52.0047 103.68ZM59.9467 103.699C59.9467 102.888 59.7187 102.249 59.2627 101.78C58.8193 101.311 58.2747 101.077 57.6287 101.077C56.9827 101.077 56.4317 101.311 55.9757 101.78C55.5323 102.236 55.3107 102.869 55.3107 103.68C55.3107 104.491 55.5323 105.137 55.9757 105.618C56.4317 106.087 56.9827 106.321 57.6287 106.321C58.2747 106.321 58.8193 106.087 59.2627 105.618C59.7187 105.149 59.9467 104.51 59.9467 103.699ZM72.0062 98.284C73.2475 98.284 74.2355 98.6893 74.9702 99.5C75.7175 100.298 76.0912 101.4 76.0912 102.806V109H72.8612V103.243C72.8612 102.534 72.6775 101.983 72.3102 101.59C71.9428 101.197 71.4488 101.001 70.8282 101.001C70.2075 101.001 69.7135 101.197 69.3462 101.59C68.9788 101.983 68.7952 102.534 68.7952 103.243V109H65.5462V98.398H68.7952V99.804C69.1245 99.3353 69.5678 98.968 70.1252 98.702C70.6825 98.4233 71.3095 98.284 72.0062 98.284ZM77.7029 103.699C77.7029 102.597 77.9246 101.634 78.3679 100.811C78.8239 99.9877 79.4509 99.3543 80.2489 98.911C81.0596 98.4677 81.9842 98.246 83.0229 98.246C84.3529 98.246 85.4612 98.5943 86.3479 99.291C87.2472 99.9877 87.8362 100.969 88.1149 102.236H84.6569C84.3656 101.425 83.8019 101.02 82.9659 101.02C82.3706 101.02 81.8956 101.254 81.5409 101.723C81.1862 102.179 81.0089 102.838 81.0089 103.699C81.0089 104.56 81.1862 105.225 81.5409 105.694C81.8956 106.15 82.3706 106.378 82.9659 106.378C83.8019 106.378 84.3656 105.973 84.6569 105.162H88.1149C87.8362 106.403 87.2472 107.379 86.3479 108.088C85.4486 108.797 84.3402 109.152 83.0229 109.152C81.9842 109.152 81.0596 108.93 80.2489 108.487C79.4509 108.044 78.8239 107.41 78.3679 106.587C77.9246 105.764 77.7029 104.801 77.7029 103.699ZM99.8468 103.528C99.8468 103.832 99.8278 104.149 99.7898 104.478H92.4368C92.4875 105.137 92.6965 105.643 93.0638 105.998C93.4438 106.34 93.9061 106.511 94.4508 106.511C95.2615 106.511 95.8251 106.169 96.1418 105.485H99.5998C99.4225 106.182 99.0995 106.809 98.6308 107.366C98.1748 107.923 97.5985 108.36 96.9018 108.677C96.2051 108.994 95.4261 109.152 94.5648 109.152C93.5261 109.152 92.6015 108.93 91.7908 108.487C90.9801 108.044 90.3468 107.41 89.8908 106.587C89.4348 105.764 89.2068 104.801 89.2068 103.699C89.2068 102.597 89.4285 101.634 89.8718 100.811C90.3278 99.9877 90.9611 99.3543 91.7718 98.911C92.5825 98.4677 93.5135 98.246 94.5648 98.246C95.5908 98.246 96.5028 98.4613 97.3008 98.892C98.0988 99.3227 98.7195 99.937 99.1628 100.735C99.6188 101.533 99.8468 102.464 99.8468 103.528ZM96.5218 102.673C96.5218 102.116 96.3318 101.672 95.9518 101.343C95.5718 101.014 95.0968 100.849 94.5268 100.849C93.9821 100.849 93.5198 101.007 93.1398 101.324C92.7725 101.641 92.5445 102.09 92.4558 102.673H96.5218ZM104.81 94.94V109H101.561V94.94H104.81ZM117.158 103.528C117.158 103.832 117.139 104.149 117.101 104.478H109.748C109.799 105.137 110.008 105.643 110.375 105.998C110.755 106.34 111.218 106.511 111.762 106.511C112.573 106.511 113.137 106.169 113.453 105.485H116.911C116.734 106.182 116.411 106.809 115.942 107.366C115.486 107.923 114.91 108.36 114.213 108.677C113.517 108.994 112.738 109.152 111.876 109.152C110.838 109.152 109.913 108.93 109.102 108.487C108.292 108.044 107.658 107.41 107.202 106.587C106.746 105.764 106.518 104.801 106.518 103.699C106.518 102.597 106.74 101.634 107.183 100.811C107.639 99.9877 108.273 99.3543 109.083 98.911C109.894 98.4677 110.825 98.246 111.876 98.246C112.902 98.246 113.814 98.4613 114.612 98.892C115.41 99.3227 116.031 99.937 116.474 100.735C116.93 101.533 117.158 102.464 117.158 103.528ZM113.833 102.673C113.833 102.116 113.643 101.672 113.263 101.343C112.883 101.014 112.408 100.849 111.838 100.849C111.294 100.849 110.831 101.007 110.451 101.324C110.084 101.641 109.856 102.09 109.767 102.673H113.833ZM118.226 103.68C118.226 102.591 118.429 101.634 118.834 100.811C119.252 99.9877 119.816 99.3543 120.525 98.911C121.235 98.4677 122.026 98.246 122.9 98.246C123.597 98.246 124.23 98.3917 124.8 98.683C125.383 98.9743 125.839 99.367 126.168 99.861V94.94H129.417V109H126.168V107.48C125.864 107.987 125.427 108.392 124.857 108.696C124.3 109 123.648 109.152 122.9 109.152C122.026 109.152 121.235 108.93 120.525 108.487C119.816 108.031 119.252 107.391 118.834 106.568C118.429 105.732 118.226 104.769 118.226 103.68ZM126.168 103.699C126.168 102.888 125.94 102.249 125.484 101.78C125.041 101.311 124.496 101.077 123.85 101.077C123.204 101.077 122.653 101.311 122.197 101.78C121.754 102.236 121.532 102.869 121.532 103.68C121.532 104.491 121.754 105.137 122.197 105.618C122.653 106.087 123.204 106.321 123.85 106.321C124.496 106.321 125.041 106.087 125.484 105.618C125.94 105.149 126.168 104.51 126.168 103.699ZM136.043 95.187L135.663 104.288H132.908L132.528 95.187H136.043ZM134.333 109.152C133.763 109.152 133.294 108.987 132.927 108.658C132.572 108.316 132.395 107.898 132.395 107.404C132.395 106.897 132.572 106.473 132.927 106.131C133.294 105.789 133.763 105.618 134.333 105.618C134.89 105.618 135.346 105.789 135.701 106.131C136.068 106.473 136.252 106.897 136.252 107.404C136.252 107.898 136.068 108.316 135.701 108.658C135.346 108.987 134.89 109.152 134.333 109.152Z" fill="#1D1617"/>
<path d="M7.828 135.997V136.719C7.828 138.98 4.883 140.956 1.862 141.393L2.47 142.647C5.928 142.058 9.196 139.797 9.196 136.719V135.997H7.828ZM8.227 135.997V136.719C8.227 139.797 11.476 142.058 14.953 142.647L15.542 141.393C12.54 140.956 9.576 138.98 9.576 136.719V135.997H8.227ZM7.885 144.927V151.482H9.443V144.927H7.885ZM0.95 144.091V145.383H16.473V144.091H0.95ZM2.394 135.37V136.643H14.972V135.37H2.394ZM18.4095 143.084V144.376H33.9705V143.084H18.4095ZM25.5155 143.882V147.834H27.0925V143.882H25.5155ZM20.4045 135.104V141.146H31.9565V135.104H20.4045ZM30.3985 136.377V139.873H21.9435V136.377H30.3985ZM20.3855 149.81V151.102H32.2415V149.81H20.3855ZM20.3855 146.181V150.266H21.9435V146.181H20.3855ZM48.371 134.287V151.501H49.948V134.287H48.371ZM40.885 135.617C38.358 135.617 36.534 137.954 36.534 141.602C36.534 145.269 38.358 147.606 40.885 147.606C43.431 147.606 45.255 145.269 45.255 141.602C45.255 137.954 43.431 135.617 40.885 135.617ZM40.885 137.042C42.576 137.042 43.735 138.828 43.735 141.602C43.735 144.395 42.576 146.219 40.885 146.219C39.213 146.219 38.035 144.395 38.035 141.602C38.035 138.828 39.213 137.042 40.885 137.042ZM63.2041 137.308V137.536C63.2041 139.36 61.5321 140.956 59.0811 141.507L59.7271 142.761C62.6341 142.039 64.4961 140.063 64.4961 137.536V137.308H63.2041ZM63.4891 137.308V137.536C63.4891 139.949 65.3511 141.83 68.2201 142.514L68.8661 141.279C66.4341 140.728 64.7811 139.265 64.7811 137.536V137.308H63.4891ZM59.4421 136.244V137.498H68.5431V136.244H59.4421ZM63.1851 134.344V137.08H64.7811V134.344H63.1851ZM63.2231 144.129V150.988H64.8001V144.129H63.2231ZM70.8231 134.306V151.501H72.3811V134.306H70.8231ZM58.4921 145.288C61.6841 145.288 65.8641 145.231 69.7211 144.566L69.6071 143.407C65.8451 143.939 61.5321 143.958 58.2831 143.958L58.4921 145.288ZM75.7996 147.948V149.259H91.3606V147.948H75.7996ZM82.7156 143.787V148.385H84.2736V143.787H82.7156ZM82.6776 135.446V136.776C82.6776 139.607 79.4286 142.134 76.4076 142.685L77.0726 143.996C80.5306 143.274 84.0456 140.443 84.0456 136.776V135.446H82.6776ZM82.9626 135.446V136.776C82.9626 140.443 86.4776 143.274 89.9356 143.996L90.6196 142.685C87.5986 142.134 84.3306 139.626 84.3306 136.776V135.446H82.9626ZM94.6271 141.697V142.989H103.424V141.697H94.6271ZM98.1421 142.723V146.675H99.7381V142.723H98.1421ZM94.6271 135.921V142.153H96.2041V137.213H103.329V135.921H94.6271ZM105.685 134.287V151.501H107.262V134.287H105.685ZM93.5821 147.777C96.8311 147.796 100.935 147.72 104.697 147.15L104.564 145.972C100.935 146.409 96.7171 146.447 93.3541 146.466L93.5821 147.777ZM115.127 144.775V145.763C115.127 147.435 113.854 149.297 111.688 150.095L112.486 151.273C114.956 150.323 116.362 148.043 116.362 145.763V144.775H115.127ZM115.488 144.775V145.763C115.488 148.062 116.59 150.456 119.079 151.425L119.744 150.228C117.673 149.392 116.666 147.511 116.666 145.763V144.775H115.488ZM121.492 144.775V145.763C121.492 147.264 120.447 149.278 118.395 150.228L119.079 151.425C121.53 150.38 122.651 147.796 122.651 145.763V144.775H121.492ZM121.796 144.775V145.763C121.796 148.157 123.183 150.361 125.672 151.273L126.489 150.095C124.285 149.354 123.031 147.568 123.031 145.763V144.775H121.796ZM119.193 138.6V139.911H123.734V138.6H119.193ZM115.431 135.275C112.904 135.275 111.042 136.928 111.042 139.303C111.042 141.659 112.904 143.312 115.431 143.312C117.958 143.312 119.839 141.659 119.839 139.303C119.839 136.928 117.958 135.275 115.431 135.275ZM115.431 136.586C117.084 136.586 118.319 137.726 118.319 139.303C118.319 140.88 117.084 142.001 115.431 142.001C113.759 142.001 112.543 140.88 112.543 139.303C112.543 137.726 113.759 136.586 115.431 136.586ZM123.297 134.306V144.091H124.874V134.306H123.297ZM130.192 144.604V151.254H141.725V144.604H140.148V146.599H131.75V144.604H130.192ZM131.75 147.815H140.148V149.981H131.75V147.815ZM128.216 142.134V143.407H143.739V142.134H128.216ZM135.189 134.496V135.256C135.189 137.422 132.206 139.265 129.109 139.683L129.679 140.918C133.213 140.386 136.538 138.239 136.538 135.256V134.496H135.189ZM135.436 134.496V135.256C135.436 138.201 138.78 140.386 142.276 140.918L142.865 139.683C139.806 139.265 136.785 137.384 136.785 135.256V134.496H135.436ZM158.197 134.306V151.482H159.774V134.306H158.197ZM146.797 135.978V146.618H148.355V135.978H146.797ZM146.797 145.687V147.055H148.203C150.92 147.055 153.637 146.846 156.62 146.238L156.43 144.889C153.523 145.497 150.806 145.687 148.203 145.687H146.797ZM174.801 134.287V151.501H176.397V134.287H174.801ZM176.017 141.07V142.4H179.209V141.07H176.017ZM163.914 145.896V147.226H165.263C168.493 147.226 170.754 147.131 173.395 146.637L173.224 145.307C170.659 145.782 168.436 145.896 165.263 145.896H163.914ZM163.914 135.959V146.485H165.472V137.251H171.894V135.959H163.914ZM182.02 150.133C181.627 150.133 181.298 150 181.032 149.734C180.766 149.468 180.633 149.139 180.633 148.746C180.633 148.353 180.766 148.024 181.032 147.758C181.298 147.492 181.627 147.359 182.02 147.359C182.4 147.359 182.723 147.492 182.989 147.758C183.255 148.024 183.388 148.353 183.388 148.746C183.388 149.139 183.255 149.468 182.989 149.734C182.723 150 182.4 150.133 182.02 150.133Z" fill="#1D1617"/>
<path d="M46.94 171.436V177.89H48.102V171.436H46.94ZM42.936 172.052V172.626C42.936 174.81 41.172 176.476 37.896 177.232L38.302 178.184C41.998 177.288 44.196 175.244 44.196 172.052H42.936ZM38.554 172.052V173.004H43.468V172.052H38.554ZM43.748 173.256V174.18H47.136V173.256H43.748ZM43.636 175.678V176.588H47.066V175.678H43.636ZM39.954 178.478V179.416H46.954V180.69H39.996V183.602H41.144V181.586H48.102V178.478H39.954ZM39.996 183.042V183.966H48.522V183.042H39.996ZM60.1969 171.436V184.092H61.3169V171.436H60.1969ZM55.5909 175.972V176.938H58.0129V175.972H55.5909ZM57.6629 171.73V183.448H58.7549V171.73H57.6629ZM53.1549 173.396V175.006C53.1549 177.33 52.1749 179.64 50.4109 180.704L51.1249 181.572C52.9869 180.396 54.0509 177.778 54.0509 175.006V173.396H53.1549ZM53.3929 173.396V175.006C53.3929 177.652 54.4149 180.144 56.2629 181.264L56.9769 180.41C55.2409 179.402 54.2889 177.204 54.2889 175.006V173.396H53.3929ZM50.7609 172.906V173.872H56.5429V172.906H50.7609ZM66.5238 172.094V173.382C66.5238 175.314 65.2918 177.022 63.3878 177.722L64.0038 178.66C66.1178 177.834 67.4898 175.818 67.4898 173.382V172.094H66.5238ZM66.7338 172.094V173.466C66.7338 175.664 68.1198 177.54 70.1498 178.296L70.7658 177.386C68.9458 176.756 67.6858 175.174 67.6858 173.466V172.094H66.7338ZM72.1098 171.436V179.108H73.2718V171.436H72.1098ZM72.9498 174.698V175.678H75.1478V174.698H72.9498ZM69.2398 179.458C66.6498 179.458 65.0818 180.312 65.0818 181.768C65.0818 183.224 66.6498 184.064 69.2398 184.064C71.8298 184.064 73.3978 183.224 73.3978 181.768C73.3978 180.312 71.8298 179.458 69.2398 179.458ZM69.2398 180.382C71.1158 180.382 72.2638 180.886 72.2638 181.768C72.2638 182.65 71.1158 183.154 69.2398 183.154C67.3638 183.154 66.2158 182.65 66.2158 181.768C66.2158 180.886 67.3638 180.382 69.2398 180.382ZM76.8267 179.99V180.97H77.6527C79.6827 180.97 80.9147 180.928 82.3847 180.634L82.2587 179.668C80.8447 179.948 79.6547 179.99 77.6527 179.99H76.8267ZM76.8267 172.878V180.354H77.9327V173.83H81.8107V172.878H76.8267ZM77.5967 176.224V177.162H81.6147V176.224H77.5967ZM85.9687 171.436V184.092H87.0887V171.436H85.9687ZM83.9667 176.504V177.47H86.3887V176.504H83.9667ZM83.1827 171.702V183.462H84.2887V171.702H83.1827ZM90.2096 183.098C89.9203 183.098 89.6776 183 89.4816 182.804C89.2856 182.608 89.1876 182.365 89.1876 182.076C89.1876 181.787 89.2856 181.544 89.4816 181.348C89.6776 181.152 89.9203 181.054 90.2096 181.054C90.4896 181.054 90.7276 181.152 90.9236 181.348C91.1196 181.544 91.2176 181.787 91.2176 182.076C91.2176 182.365 91.1196 182.608 90.9236 182.804C90.7276 183 90.4896 183.098 90.2096 183.098ZM90.2096 177.218C89.9203 177.218 89.6776 177.12 89.4816 176.924C89.2856 176.728 89.1876 176.485 89.1876 176.196C89.1876 175.907 89.2856 175.664 89.4816 175.468C89.6776 175.272 89.9203 175.174 90.2096 175.174C90.4896 175.174 90.7276 175.272 90.9236 175.468C91.1196 175.664 91.2176 175.907 91.2176 176.196C91.2176 176.485 91.1196 176.728 90.9236 176.924C90.7276 177.12 90.4896 177.218 90.2096 177.218Z" fill="#1D1617"/>
<path d="M100.946 172.724V173.102C100.946 174.432 99.574 175.888 96.718 176.238L97.404 177.694C100.694 177.246 102.556 175.384 102.556 173.102V172.724H100.946ZM101.478 172.724V173.102C101.478 175.384 103.34 177.246 106.644 177.694L107.316 176.238C104.46 175.888 103.088 174.432 103.088 173.102V172.724H101.478ZM101.044 179.5V184.26H102.892V179.5H101.044ZM96.158 178.436V179.92H107.876V178.436H96.158ZM97.194 171.94V173.41H106.812V171.94H97.194ZM109.023 177.68V179.164H120.755V177.68H109.023ZM114.105 178.618V181.348H115.981V178.618H114.105ZM110.465 171.828V176.644H119.271V171.828H110.465ZM117.437 173.284V175.188H112.285V173.284H117.437ZM110.381 182.538V184.022H119.467V182.538H110.381ZM110.381 180.256V183.028H112.229V180.256H110.381ZM125.248 173.746V173.9C125.248 175.02 124.366 176.084 122.364 176.448L123.106 177.89C125.598 177.386 126.746 175.818 126.746 173.9V173.746H125.248ZM125.626 173.746V173.9C125.626 175.734 126.774 177.232 129.224 177.694L129.952 176.266C127.992 175.916 127.124 174.95 127.124 173.9V173.746H125.626ZM122.714 172.57V173.998H129.644V172.57H122.714ZM125.248 171.31V173.592H127.124V171.31H125.248ZM125.234 178.646V183.854H127.096V178.646H125.234ZM130.904 171.282V184.246H132.752V171.282H130.904ZM122.168 179.948C124.478 179.948 127.488 179.906 130.288 179.402L130.162 178.058C127.446 178.422 124.296 178.436 121.944 178.436L122.168 179.948ZM134.795 181.208V182.734H146.527V181.208H134.795ZM139.667 178.324V181.614H141.515V178.324H139.667ZM139.597 171.996V172.934C139.597 174.726 138.015 176.714 135.061 177.19L135.831 178.744C139.219 178.128 141.221 175.692 141.221 172.934V171.996H139.597ZM139.961 171.996V172.934C139.961 175.734 141.963 178.114 145.365 178.744L146.135 177.19C143.167 176.714 141.585 174.768 141.585 172.934V171.996H139.961Z" fill="#FFE060"/>
<path d="M101.5 28.5L82.5 47.5" stroke="#FFE060" stroke-width="2" stroke-linecap="round" stroke-linejoin="round"/>
<path d="M82.5 28.5L101.5 47.5" stroke="#FFE060" stroke-width="2" stroke-linecap="round" stroke-linejoin="round"/>
</svg>
