<svg width="282" height="189" viewBox="0 0 282 189" fill="none" xmlns="http://www.w3.org/2000/svg">
<circle cx="135" cy="36" r="35" fill="white" stroke="#FFE060" stroke-width="2"/>
<path d="M122.861 95.662V98.265H117.427V101.077H121.493V103.604H117.427V109H114.178V95.662H122.861ZM123.923 103.68C123.923 102.591 124.125 101.634 124.531 100.811C124.949 99.9877 125.512 99.3543 126.222 98.911C126.931 98.4677 127.723 98.246 128.597 98.246C129.344 98.246 129.996 98.398 130.554 98.702C131.124 99.006 131.561 99.405 131.865 99.899V98.398H135.114V109H131.865V107.499C131.548 107.993 131.105 108.392 130.535 108.696C129.977 109 129.325 109.152 128.578 109.152C127.716 109.152 126.931 108.93 126.222 108.487C125.512 108.031 124.949 107.391 124.531 106.568C124.125 105.732 123.923 104.769 123.923 103.68ZM131.865 103.699C131.865 102.888 131.637 102.249 131.181 101.78C130.737 101.311 130.193 101.077 129.547 101.077C128.901 101.077 128.35 101.311 127.894 101.78C127.45 102.236 127.229 102.869 127.229 103.68C127.229 104.491 127.45 105.137 127.894 105.618C128.35 106.087 128.901 106.321 129.547 106.321C130.193 106.321 130.737 106.087 131.181 105.618C131.637 105.149 131.865 104.51 131.865 103.699ZM139.098 97.296C138.528 97.296 138.059 97.1313 137.692 96.802C137.337 96.46 137.16 96.042 137.16 95.548C137.16 95.0413 137.337 94.6233 137.692 94.294C138.059 93.952 138.528 93.781 139.098 93.781C139.655 93.781 140.111 93.952 140.466 94.294C140.833 94.6233 141.017 95.0413 141.017 95.548C141.017 96.042 140.833 96.46 140.466 96.802C140.111 97.1313 139.655 97.296 139.098 97.296ZM140.713 98.398V109H137.464V98.398H140.713ZM146.317 94.94V109H143.068V94.94H146.317ZM152.946 95.187L152.566 104.288H149.811L149.431 95.187H152.946ZM151.236 109.152C150.666 109.152 150.197 108.987 149.83 108.658C149.475 108.316 149.298 107.898 149.298 107.404C149.298 106.897 149.475 106.473 149.83 106.131C150.197 105.789 150.666 105.618 151.236 105.618C151.793 105.618 152.249 105.789 152.604 106.131C152.971 106.473 153.155 106.897 153.155 107.404C153.155 107.898 152.971 108.316 152.604 108.658C152.249 108.987 151.793 109.152 151.236 109.152Z" fill="#1D1617"/>
<path d="M5.472 135.788V138.866C5.472 142.115 3.401 145.402 0.855 146.618L1.824 147.91C4.636 146.485 6.764 142.818 6.764 138.866V135.788H5.472ZM5.738 135.788V138.866C5.738 142.685 7.885 146.219 10.678 147.587L11.628 146.333C9.082 145.155 7.03 142.001 7.03 138.866V135.788H5.738ZM13.414 134.287V151.501H14.991V134.287H13.414ZM30.1705 134.306V146.865H31.7475V134.306H30.1705ZM31.2535 139.512V140.823H34.2935V139.512H31.2535ZM25.4775 135.636V136.32C25.4775 139.626 22.7605 142.286 18.4285 143.616L19.1125 144.908C24.0335 143.331 27.1495 140.082 27.1495 135.636H25.4775ZM19.1315 135.636V136.928H26.2755V135.636H19.1315ZM21.0315 149.81V151.102H32.5075V149.81H21.0315ZM21.0315 145.592V150.323H22.6085V145.592H21.0315ZM40.8426 148.005V149.316H56.4036V148.005H40.8426ZM47.8156 144.129V148.708H49.3926V144.129H47.8156ZM47.8156 137.897V138.277C47.8156 140.937 45.0416 142.932 41.6786 143.464L42.2866 144.718C46.0106 144.072 49.2026 141.792 49.2026 138.277V137.897H47.8156ZM48.0246 137.897V138.277C48.0246 141.792 51.1976 144.072 54.9216 144.718L55.5296 143.464C52.1666 142.932 49.3926 140.937 49.3926 138.277V137.897H48.0246ZM42.2676 137.004V138.315H54.9216V137.004H42.2676ZM47.8156 134.667V137.479H49.3926V134.667H47.8156ZM59.0811 136.187V137.46H66.8521V136.187H59.0811ZM61.7601 141.089V146.903H63.3181V141.089H61.7601ZM66.2061 136.187V137.099C66.2061 138.486 66.2061 140.69 65.6931 143.787L67.2511 143.939C67.7451 140.747 67.7451 138.505 67.7451 137.099V136.187H66.2061ZM69.9111 134.306V151.482H71.4691V134.306H69.9111ZM71.0511 141.488V142.818H74.2241V141.488H71.0511ZM58.3211 147.739C61.3611 147.72 65.3891 147.644 68.9421 147.074L68.8661 145.915C65.3891 146.352 61.2471 146.409 58.1311 146.409L58.3211 147.739ZM75.7996 148.062V149.373H91.3606V148.062H75.7996ZM82.7536 144.376V148.613H84.3306V144.376H82.7536ZM77.6806 135.579V136.852H87.8836V139.512H77.7376V144.224H79.2956V140.785H89.4416V135.579H77.6806ZM77.7376 143.559V144.851H89.8406V143.559H77.7376ZM105.092 135.997V136.719C105.092 138.98 102.147 140.956 99.1257 141.393L99.7337 142.647C103.192 142.058 106.46 139.797 106.46 136.719V135.997H105.092ZM105.491 135.997V136.719C105.491 139.797 108.74 142.058 112.217 142.647L112.806 141.393C109.804 140.956 106.84 138.98 106.84 136.719V135.997H105.491ZM105.149 144.927V151.482H106.707V144.927H105.149ZM98.2137 144.091V145.383H113.737V144.091H98.2137ZM99.6577 135.37V136.643H112.236V135.37H99.6577ZM115.673 143.084V144.376H131.234V143.084H115.673ZM122.779 143.882V147.834H124.356V143.882H122.779ZM117.668 135.104V141.146H129.22V135.104H117.668ZM127.662 136.377V139.873H119.207V136.377H127.662ZM117.649 149.81V151.102H129.505V149.81H117.649ZM117.649 146.181V150.266H119.207V146.181H117.649ZM145.635 134.287V151.501H147.212V134.287H145.635ZM138.149 135.617C135.622 135.617 133.798 137.954 133.798 141.602C133.798 145.269 135.622 147.606 138.149 147.606C140.695 147.606 142.519 145.269 142.519 141.602C142.519 137.954 140.695 135.617 138.149 135.617ZM138.149 137.042C139.84 137.042 140.999 138.828 140.999 141.602C140.999 144.395 139.84 146.219 138.149 146.219C136.477 146.219 135.299 144.395 135.299 141.602C135.299 138.828 136.477 137.042 138.149 137.042ZM168.068 134.306V143.198H169.645V134.306H168.068ZM158.549 144.072V145.307H168.106V147.017H158.587V150.551H160.126V148.195H169.664V144.072H158.549ZM158.587 150.038V151.292H170.234V150.038H158.587ZM160.05 134.8V136.111C160.05 138.6 158.283 140.88 155.699 141.792L156.478 143.046C159.385 141.982 161.361 139.284 161.361 136.111V134.8H160.05ZM160.335 134.8V136.111C160.335 139.189 162.311 141.716 165.199 142.704L165.978 141.469C163.432 140.633 161.627 138.486 161.627 136.111V134.8H160.335ZM186.135 134.306V151.482H187.655V134.306H186.135ZM183.418 141.203V142.514H186.705V141.203H183.418ZM182.411 134.686V150.608H183.893V134.686H182.411ZM173.215 136.453V137.745H181.157V136.453H173.215ZM173.063 147.264C175.305 147.264 178.877 147.188 181.594 146.675L181.48 145.516C178.858 145.858 175.134 145.934 172.873 145.934L173.063 147.264ZM174.678 137.289V146.276H176.122V137.289H174.678ZM178.25 137.289V146.276H179.694V137.289H178.25ZM191.891 141.697V142.989H200.688V141.697H191.891ZM195.406 142.723V146.675H197.002V142.723H195.406ZM191.891 135.921V142.153H193.468V137.213H200.593V135.921H191.891ZM202.949 134.287V151.501H204.526V134.287H202.949ZM190.846 147.777C194.095 147.796 198.199 147.72 201.961 147.15L201.828 145.972C198.199 146.409 193.981 146.447 190.618 146.466L190.846 147.777ZM212.39 144.775V145.763C212.39 147.435 211.117 149.297 208.951 150.095L209.749 151.273C212.219 150.323 213.625 148.043 213.625 145.763V144.775H212.39ZM212.751 144.775V145.763C212.751 148.062 213.853 150.456 216.342 151.425L217.007 150.228C214.936 149.392 213.929 147.511 213.929 145.763V144.775H212.751ZM218.755 144.775V145.763C218.755 147.264 217.71 149.278 215.658 150.228L216.342 151.425C218.793 150.38 219.914 147.796 219.914 145.763V144.775H218.755ZM219.059 144.775V145.763C219.059 148.157 220.446 150.361 222.935 151.273L223.752 150.095C221.548 149.354 220.294 147.568 220.294 145.763V144.775H219.059ZM216.456 138.6V139.911H220.997V138.6H216.456ZM212.694 135.275C210.167 135.275 208.305 136.928 208.305 139.303C208.305 141.659 210.167 143.312 212.694 143.312C215.221 143.312 217.102 141.659 217.102 139.303C217.102 136.928 215.221 135.275 212.694 135.275ZM212.694 136.586C214.347 136.586 215.582 137.726 215.582 139.303C215.582 140.88 214.347 142.001 212.694 142.001C211.022 142.001 209.806 140.88 209.806 139.303C209.806 137.726 211.022 136.586 212.694 136.586ZM220.56 134.306V144.091H222.137V134.306H220.56ZM227.456 144.604V151.254H238.989V144.604H237.412V146.599H229.014V144.604H227.456ZM229.014 147.815H237.412V149.981H229.014V147.815ZM225.48 142.134V143.407H241.003V142.134H225.48ZM232.453 134.496V135.256C232.453 137.422 229.47 139.265 226.373 139.683L226.943 140.918C230.477 140.386 233.802 138.239 233.802 135.256V134.496H232.453ZM232.7 134.496V135.256C232.7 138.201 236.044 140.386 239.54 140.918L240.129 139.683C237.07 139.265 234.049 137.384 234.049 135.256V134.496H232.7ZM255.46 134.306V151.482H257.037V134.306H255.46ZM244.06 135.978V146.618H245.618V135.978H244.06ZM244.06 145.687V147.055H245.466C248.183 147.055 250.9 146.846 253.883 146.238L253.693 144.889C250.786 145.497 248.069 145.687 245.466 145.687H244.06ZM272.065 134.287V151.501H273.661V134.287H272.065ZM273.281 141.07V142.4H276.473V141.07H273.281ZM261.178 145.896V147.226H262.527C265.757 147.226 268.018 147.131 270.659 146.637L270.488 145.307C267.923 145.782 265.7 145.896 262.527 145.896H261.178ZM261.178 135.959V146.485H262.736V137.251H269.158V135.959H261.178ZM279.283 150.133C278.891 150.133 278.561 150 278.295 149.734C278.029 149.468 277.896 149.139 277.896 148.746C277.896 148.353 278.029 148.024 278.295 147.758C278.561 147.492 278.891 147.359 279.283 147.359C279.663 147.359 279.986 147.492 280.252 147.758C280.518 148.024 280.651 148.353 280.651 148.746C280.651 149.139 280.518 149.468 280.252 149.734C279.986 150 279.663 150.133 279.283 150.133Z" fill="#1D1617"/>
<path d="M89.94 170.436V176.89H91.102V170.436H89.94ZM85.936 171.052V171.626C85.936 173.81 84.172 175.476 80.896 176.232L81.302 177.184C84.998 176.288 87.196 174.244 87.196 171.052H85.936ZM81.554 171.052V172.004H86.468V171.052H81.554ZM86.748 172.256V173.18H90.136V172.256H86.748ZM86.636 174.678V175.588H90.066V174.678H86.636ZM82.954 177.478V178.416H89.954V179.69H82.996V182.602H84.144V180.586H91.102V177.478H82.954ZM82.996 182.042V182.966H91.522V182.042H82.996ZM103.197 170.436V183.092H104.317V170.436H103.197ZM98.5909 174.972V175.938H101.013V174.972H98.5909ZM100.663 170.73V182.448H101.755V170.73H100.663ZM96.1549 172.396V174.006C96.1549 176.33 95.1749 178.64 93.4109 179.704L94.1249 180.572C95.9869 179.396 97.0509 176.778 97.0509 174.006V172.396H96.1549ZM96.3929 172.396V174.006C96.3929 176.652 97.4149 179.144 99.2629 180.264L99.9769 179.41C98.2409 178.402 97.2889 176.204 97.2889 174.006V172.396H96.3929ZM93.7609 171.906V172.872H99.5429V171.906H93.7609ZM109.524 171.094V172.382C109.524 174.314 108.292 176.022 106.388 176.722L107.004 177.66C109.118 176.834 110.49 174.818 110.49 172.382V171.094H109.524ZM109.734 171.094V172.466C109.734 174.664 111.12 176.54 113.15 177.296L113.766 176.386C111.946 175.756 110.686 174.174 110.686 172.466V171.094H109.734ZM115.11 170.436V178.108H116.272V170.436H115.11ZM115.95 173.698V174.678H118.148V173.698H115.95ZM112.24 178.458C109.65 178.458 108.082 179.312 108.082 180.768C108.082 182.224 109.65 183.064 112.24 183.064C114.83 183.064 116.398 182.224 116.398 180.768C116.398 179.312 114.83 178.458 112.24 178.458ZM112.24 179.382C114.116 179.382 115.264 179.886 115.264 180.768C115.264 181.65 114.116 182.154 112.24 182.154C110.364 182.154 109.216 181.65 109.216 180.768C109.216 179.886 110.364 179.382 112.24 179.382ZM119.827 178.99V179.97H120.653C122.683 179.97 123.915 179.928 125.385 179.634L125.259 178.668C123.845 178.948 122.655 178.99 120.653 178.99H119.827ZM119.827 171.878V179.354H120.933V172.83H124.811V171.878H119.827ZM120.597 175.224V176.162H124.615V175.224H120.597ZM128.969 170.436V183.092H130.089V170.436H128.969ZM126.967 175.504V176.47H129.389V175.504H126.967ZM126.183 170.702V182.462H127.289V170.702H126.183ZM133.21 182.098C132.92 182.098 132.678 182 132.482 181.804C132.286 181.608 132.188 181.365 132.188 181.076C132.188 180.787 132.286 180.544 132.482 180.348C132.678 180.152 132.92 180.054 133.21 180.054C133.49 180.054 133.728 180.152 133.924 180.348C134.12 180.544 134.218 180.787 134.218 181.076C134.218 181.365 134.12 181.608 133.924 181.804C133.728 182 133.49 182.098 133.21 182.098ZM133.21 176.218C132.92 176.218 132.678 176.12 132.482 175.924C132.286 175.728 132.188 175.485 132.188 175.196C132.188 174.907 132.286 174.664 132.482 174.468C132.678 174.272 132.92 174.174 133.21 174.174C133.49 174.174 133.728 174.272 133.924 174.468C134.12 174.664 134.218 174.907 134.218 175.196C134.218 175.485 134.12 175.728 133.924 175.924C133.728 176.12 133.49 176.218 133.21 176.218Z" fill="#1D1617"/>
<path d="M143.946 171.724V172.102C143.946 173.432 142.574 174.888 139.718 175.238L140.404 176.694C143.694 176.246 145.556 174.384 145.556 172.102V171.724H143.946ZM144.478 171.724V172.102C144.478 174.384 146.34 176.246 149.644 176.694L150.316 175.238C147.46 174.888 146.088 173.432 146.088 172.102V171.724H144.478ZM144.044 178.5V183.26H145.892V178.5H144.044ZM139.158 177.436V178.92H150.876V177.436H139.158ZM140.194 170.94V172.41H149.812V170.94H140.194ZM152.023 176.68V178.164H163.755V176.68H152.023ZM157.105 177.618V180.348H158.981V177.618H157.105ZM153.465 170.828V175.644H162.271V170.828H153.465ZM160.437 172.284V174.188H155.285V172.284H160.437ZM153.381 181.538V183.022H162.467V181.538H153.381ZM153.381 179.256V182.028H155.229V179.256H153.381ZM173.806 170.282V176.834H175.682V170.282H173.806ZM167.03 177.408V178.822H173.834V179.578H167.058V182.224H168.878V180.922H175.682V177.408H167.03ZM167.058 181.72V183.162H176.004V181.72H167.058ZM167.94 170.576V171.556C167.94 173.138 167.016 174.762 164.846 175.42L165.742 176.89C168.276 176.12 169.48 173.95 169.48 171.556V170.576H167.94ZM168.318 170.576V171.556C168.318 173.894 169.48 175.924 171.972 176.652L172.868 175.21C170.754 174.608 169.844 173.096 169.844 171.556V170.576H168.318ZM187.147 170.282V183.246H188.925V170.282H187.147ZM185.593 175.252V176.764H187.735V175.252H185.593ZM184.417 170.506V182.63H186.153V170.506H184.417ZM177.879 171.738V173.222H183.801V171.738H177.879ZM177.851 180.306C179.433 180.306 182.037 180.264 184.025 179.83L183.899 178.486C181.967 178.752 179.265 178.794 177.655 178.794L177.851 180.306ZM178.691 172.69V179.186H180.357V172.69H178.691ZM181.323 172.69V179.186H182.989V172.69H181.323Z" fill="#FFE060"/>
<path d="M144.5 28.5L125.5 47.5" stroke="#FFE060" stroke-width="2" stroke-linecap="round" stroke-linejoin="round"/>
<path d="M125.5 28.5L144.5 47.5" stroke="#FFE060" stroke-width="2" stroke-linecap="round" stroke-linejoin="round"/>
</svg>
