<svg width="260" height="190" viewBox="0 0 260 190" fill="none" xmlns="http://www.w3.org/2000/svg">
<circle cx="129" cy="36" r="35" fill="white" stroke="#FFE060" stroke-width="2"/>
<path d="M84.773 95.662V98.265H81.239V109H77.99V98.265H74.456V95.662H84.773ZM92.9206 98.284C94.1366 98.284 95.1119 98.6893 95.8466 99.5C96.5813 100.298 96.9486 101.4 96.9486 102.806V109H93.7186V103.243C93.7186 102.534 93.5349 101.983 93.1676 101.59C92.8003 101.197 92.3063 101.001 91.6856 101.001C91.0649 101.001 90.5709 101.197 90.2036 101.59C89.8363 101.983 89.6526 102.534 89.6526 103.243V109H86.4036V94.94H89.6526V99.823C89.9819 99.3543 90.4316 98.9807 91.0016 98.702C91.5716 98.4233 92.2113 98.284 92.9206 98.284ZM98.5603 103.68C98.5603 102.591 98.763 101.634 99.1683 100.811C99.5863 99.9877 100.15 99.3543 100.859 98.911C101.569 98.4677 102.36 98.246 103.234 98.246C103.982 98.246 104.634 98.398 105.191 98.702C105.761 99.006 106.198 99.405 106.502 99.899V98.398H109.751V109H106.502V107.499C106.186 107.993 105.742 108.392 105.172 108.696C104.615 109 103.963 109.152 103.215 109.152C102.354 109.152 101.569 108.93 100.859 108.487C100.15 108.031 99.5863 107.391 99.1683 106.568C98.763 105.732 98.5603 104.769 98.5603 103.68ZM106.502 103.699C106.502 102.888 106.274 102.249 105.818 101.78C105.375 101.311 104.83 101.077 104.184 101.077C103.538 101.077 102.987 101.311 102.531 101.78C102.088 102.236 101.866 102.869 101.866 103.68C101.866 104.491 102.088 105.137 102.531 105.618C102.987 106.087 103.538 106.321 104.184 106.321C104.83 106.321 105.375 106.087 105.818 105.618C106.274 105.149 106.502 104.51 106.502 103.699ZM118.562 98.284C119.803 98.284 120.791 98.6893 121.526 99.5C122.273 100.298 122.647 101.4 122.647 102.806V109H119.417V103.243C119.417 102.534 119.233 101.983 118.866 101.59C118.498 101.197 118.004 101.001 117.384 101.001C116.763 101.001 116.269 101.197 115.902 101.59C115.534 101.983 115.351 102.534 115.351 103.243V109H112.102V98.398H115.351V99.804C115.68 99.3353 116.123 98.968 116.681 98.702C117.238 98.4233 117.865 98.284 118.562 98.284ZM131.384 109L128.154 104.554V109H124.905V94.94H128.154V102.711L131.365 98.398H135.374L130.966 103.718L135.412 109H131.384ZM152.114 95.662L147.497 104.592V109H144.248V104.592L139.631 95.662H143.317L145.901 101.248L148.466 95.662H152.114ZM158.249 109.152C157.21 109.152 156.273 108.93 155.437 108.487C154.614 108.044 153.961 107.41 153.48 106.587C153.011 105.764 152.777 104.801 152.777 103.699C152.777 102.61 153.018 101.653 153.499 100.83C153.98 99.994 154.639 99.3543 155.475 98.911C156.311 98.4677 157.248 98.246 158.287 98.246C159.326 98.246 160.263 98.4677 161.099 98.911C161.935 99.3543 162.594 99.994 163.075 100.83C163.556 101.653 163.797 102.61 163.797 103.699C163.797 104.788 163.55 105.751 163.056 106.587C162.575 107.41 161.91 108.044 161.061 108.487C160.225 108.93 159.288 109.152 158.249 109.152ZM158.249 106.34C158.87 106.34 159.395 106.112 159.826 105.656C160.269 105.2 160.491 104.548 160.491 103.699C160.491 102.85 160.276 102.198 159.845 101.742C159.427 101.286 158.908 101.058 158.287 101.058C157.654 101.058 157.128 101.286 156.71 101.742C156.292 102.185 156.083 102.838 156.083 103.699C156.083 104.548 156.286 105.2 156.691 105.656C157.109 106.112 157.628 106.34 158.249 106.34ZM175.99 98.398V109H172.741V107.556C172.411 108.025 171.962 108.405 171.392 108.696C170.834 108.975 170.214 109.114 169.53 109.114C168.719 109.114 168.003 108.937 167.383 108.582C166.762 108.215 166.281 107.689 165.939 107.005C165.597 106.321 165.426 105.517 165.426 104.592V98.398H168.656V104.155C168.656 104.864 168.839 105.415 169.207 105.808C169.574 106.201 170.068 106.397 170.689 106.397C171.322 106.397 171.822 106.201 172.19 105.808C172.557 105.415 172.741 104.864 172.741 104.155V98.398H175.99ZM182.599 95.187L182.219 104.288H179.464L179.084 95.187H182.599ZM180.889 109.152C180.319 109.152 179.85 108.987 179.483 108.658C179.128 108.316 178.951 107.898 178.951 107.404C178.951 106.897 179.128 106.473 179.483 106.131C179.85 105.789 180.319 105.618 180.889 105.618C181.446 105.618 181.902 105.789 182.257 106.131C182.624 106.473 182.808 106.897 182.808 107.404C182.808 107.898 182.624 108.316 182.257 108.658C181.902 108.987 181.446 109.152 180.889 109.152Z" fill="#1D1617"/>
<path d="M7.828 133.997V134.719C7.828 136.98 4.883 138.956 1.862 139.393L2.47 140.647C5.928 140.058 9.196 137.797 9.196 134.719V133.997H7.828ZM8.227 133.997V134.719C8.227 137.797 11.476 140.058 14.953 140.647L15.542 139.393C12.54 138.956 9.576 136.98 9.576 134.719V133.997H8.227ZM7.885 142.927V149.482H9.443V142.927H7.885ZM0.95 142.091V143.383H16.473V142.091H0.95ZM2.394 133.37V134.643H14.972V133.37H2.394ZM18.4095 141.084V142.376H33.9705V141.084H18.4095ZM25.5155 141.882V145.834H27.0925V141.882H25.5155ZM20.4045 133.104V139.146H31.9565V133.104H20.4045ZM30.3985 134.377V137.873H21.9435V134.377H30.3985ZM20.3855 147.81V149.102H32.2415V147.81H20.3855ZM20.3855 144.181V148.266H21.9435V144.181H20.3855ZM43.659 132.591C39.859 132.591 37.617 133.655 37.617 135.574C37.617 137.493 39.859 138.557 43.659 138.557C47.44 138.557 49.701 137.493 49.701 135.574C49.701 133.655 47.44 132.591 43.659 132.591ZM43.659 133.788C46.452 133.788 48.067 134.434 48.067 135.574C48.067 136.714 46.452 137.36 43.659 137.36C40.847 137.36 39.232 136.714 39.232 135.574C39.232 134.434 40.847 133.788 43.659 133.788ZM35.888 139.697V140.97H51.411V139.697H35.888ZM37.769 142.433V143.649H47.877V145.169H37.807V148.399H39.365V146.309H49.435V142.433H37.769ZM37.807 148.057V149.292H49.948V148.057H37.807ZM67.4791 136.752V138.063H71.3551V136.752H67.4791ZM70.8611 132.306V142.547H72.4381V132.306H70.8611ZM66.7951 143.06C63.2421 143.06 61.0571 144.257 61.0571 146.271C61.0571 148.304 63.2421 149.463 66.7951 149.463C70.3291 149.463 72.5141 148.304 72.5141 146.271C72.5141 144.257 70.3291 143.06 66.7951 143.06ZM66.7951 144.295C69.3791 144.295 70.9561 145.017 70.9561 146.271C70.9561 147.506 69.3791 148.228 66.7951 148.228C64.2111 148.228 62.6341 147.506 62.6341 146.271C62.6341 145.017 64.2111 144.295 66.7951 144.295ZM62.6911 134.035V135.422C62.6911 137.892 60.9241 140.191 58.3781 141.122L59.1951 142.376C62.0451 141.312 63.9831 138.595 63.9831 135.422V134.035H62.6911ZM62.9951 134.035V135.422C62.9951 138.31 64.8381 140.894 67.6311 141.901L68.4291 140.647C65.9401 139.773 64.2681 137.645 64.2681 135.422V134.035H62.9951ZM58.8531 133.56V134.852H68.0301V133.56H58.8531ZM79.9606 133.199V134.947C79.9606 137.569 78.2886 139.887 75.7046 140.837L76.5406 142.11C79.4096 140.989 81.2716 138.253 81.2716 134.947V133.199H79.9606ZM80.2456 133.199V135.061C80.2456 138.044 82.1266 140.59 84.8816 141.616L85.7176 140.381C83.2476 139.526 81.5376 137.379 81.5376 135.061V133.199H80.2456ZM87.5416 132.306V142.718H89.1186V132.306H87.5416ZM88.6816 136.733V138.063H91.6646V136.733H88.6816ZM83.6466 143.193C80.1316 143.193 78.0036 144.352 78.0036 146.328C78.0036 148.304 80.1316 149.444 83.6466 149.444C87.1616 149.444 89.2896 148.304 89.2896 146.328C89.2896 144.352 87.1616 143.193 83.6466 143.193ZM83.6466 144.447C86.1926 144.447 87.7506 145.131 87.7506 146.328C87.7506 147.525 86.1926 148.209 83.6466 148.209C81.1006 148.209 79.5426 147.525 79.5426 146.328C79.5426 145.131 81.1006 144.447 83.6466 144.447ZM97.6481 134.054V135.441C97.6481 137.873 95.8811 140.153 93.3161 141.065L94.1331 142.319C97.0021 141.255 98.9401 138.576 98.9401 135.441V134.054H97.6481ZM97.9521 134.054V135.441C97.9521 138.31 99.7951 140.894 102.588 141.92L103.386 140.666C100.897 139.792 99.2251 137.645 99.2251 135.441V134.054H97.9521ZM102.455 136.771V138.082H106.274V136.771H102.455ZM93.8101 133.484V134.757H102.987V133.484H93.8101ZM95.9381 143.516V144.808H105.818V149.482H107.395V143.516H95.9381ZM105.818 132.306V142.585H107.395V132.306H105.818ZM118.509 133.389C114.937 133.389 112.258 135.289 112.258 138.139C112.258 141.008 114.937 142.889 118.509 142.889C122.081 142.889 124.741 141.008 124.741 138.139C124.741 135.289 122.081 133.389 118.509 133.389ZM118.509 134.681C121.226 134.681 123.24 136.068 123.24 138.139C123.24 140.191 121.226 141.597 118.509 141.597C115.792 141.597 113.778 140.191 113.778 138.139C113.778 136.068 115.792 134.681 118.509 134.681ZM110.757 145.891V147.221H126.318V145.891H110.757ZM128.235 146.062V147.373H143.796V146.062H128.235ZM135.189 142.376V146.613H136.766V142.376H135.189ZM130.116 133.579V134.852H140.319V137.512H130.173V142.224H131.731V138.785H141.877V133.579H130.116ZM130.173 141.559V142.851H142.276V141.559H130.173ZM155.076 139.431V142.034H156.653V139.431H155.076ZM155.817 133.085C153.347 133.085 151.599 134.453 151.599 136.486C151.599 138.519 153.347 139.868 155.817 139.868C158.306 139.868 160.054 138.519 160.054 136.486C160.054 134.453 158.306 133.085 155.817 133.085ZM155.817 134.301C157.451 134.301 158.572 135.194 158.572 136.486C158.572 137.797 157.451 138.671 155.817 138.671C154.202 138.671 153.081 137.797 153.081 136.486C153.081 135.194 154.202 134.301 155.817 134.301ZM162.372 132.325V145.454H163.949V132.325H162.372ZM163.284 138.12V139.431H166.457V138.12H163.284ZM153.081 147.791V149.102H164.557V147.791H153.081ZM153.081 144.333V148.361H154.658V144.333H153.081ZM150.82 142.908C153.765 142.908 157.831 142.87 161.422 142.205L161.308 141.046C157.812 141.578 153.632 141.616 150.611 141.616L150.82 142.908ZM172.46 142.376V146.594H174.018V142.376H172.46ZM177.951 142.338V146.575H179.49V142.338H177.951ZM168.128 146.062V147.373H183.689V146.062H168.128ZM170.009 133.579V134.852H180.212V137.512H170.066V142.224H171.624V138.766H181.77V133.579H170.009ZM170.066 141.521V142.813H182.169V141.521H170.066ZM198.564 132.325V142.946H200.065V132.325H198.564ZM195.771 137.018V138.31H199.02V137.018H195.771ZM194.916 132.572V142.699H196.417V132.572H194.916ZM185.511 134.263V135.517H194.213V134.263H185.511ZM189.881 136.372C187.715 136.372 186.214 137.531 186.214 139.317C186.214 141.103 187.715 142.262 189.881 142.262C192.028 142.262 193.529 141.103 193.529 139.317C193.529 137.531 192.028 136.372 189.881 136.372ZM189.881 137.569C191.211 137.569 192.123 138.253 192.123 139.317C192.123 140.381 191.211 141.084 189.881 141.084C188.532 141.084 187.62 140.381 187.62 139.317C187.62 138.253 188.532 137.569 189.881 137.569ZM189.102 132.382V135.004H190.641V132.382H189.102ZM190.128 143.459V144.048C190.128 145.606 188.836 147.373 186.689 148.095L187.43 149.273C189.919 148.38 191.344 146.214 191.344 144.048V143.459H190.128ZM190.489 143.459V144.048C190.489 146.233 191.591 148.513 194.042 149.425L194.707 148.228C192.655 147.449 191.648 145.701 191.648 144.048V143.459H190.489ZM196.436 143.459V144.048C196.436 145.473 195.391 147.354 193.396 148.228L194.042 149.425C196.474 148.437 197.595 145.986 197.595 144.048V143.459H196.436ZM196.759 143.459V144.048C196.759 146.328 198.165 148.418 200.673 149.273L201.433 148.095C199.267 147.411 197.975 145.72 197.975 144.048V143.459H196.759ZM205.042 142.604V149.254H216.575V142.604H214.998V144.599H206.6V142.604H205.042ZM206.6 145.815H214.998V147.981H206.6V145.815ZM203.066 140.134V141.407H218.589V140.134H203.066ZM210.039 132.496V133.256C210.039 135.422 207.056 137.265 203.959 137.683L204.529 138.918C208.063 138.386 211.388 136.239 211.388 133.256V132.496H210.039ZM210.286 132.496V133.256C210.286 136.201 213.63 138.386 217.126 138.918L217.715 137.683C214.656 137.265 211.635 135.384 211.635 133.256V132.496H210.286ZM233.046 132.306V149.482H234.623V132.306H233.046ZM221.646 133.978V144.618H223.204V133.978H221.646ZM221.646 143.687V145.055H223.052C225.769 145.055 228.486 144.846 231.469 144.238L231.279 142.889C228.372 143.497 225.655 143.687 223.052 143.687H221.646ZM249.651 132.287V149.501H251.247V132.287H249.651ZM250.867 139.07V140.4H254.059V139.07H250.867ZM238.764 143.896V145.226H240.113C243.343 145.226 245.604 145.131 248.245 144.637L248.074 143.307C245.509 143.782 243.286 143.896 240.113 143.896H238.764ZM238.764 133.959V144.485H240.322V135.251H246.744V133.959H238.764ZM256.869 148.133C256.477 148.133 256.147 148 255.881 147.734C255.615 147.468 255.482 147.139 255.482 146.746C255.482 146.353 255.615 146.024 255.881 145.758C256.147 145.492 256.477 145.359 256.869 145.359C257.249 145.359 257.572 145.492 257.838 145.758C258.104 146.024 258.237 146.353 258.237 146.746C258.237 147.139 258.104 147.468 257.838 147.734C257.572 148 257.249 148.133 256.869 148.133Z" fill="#1D1617"/>
<path d="M83.94 171.436V177.89H85.102V171.436H83.94ZM79.936 172.052V172.626C79.936 174.81 78.172 176.476 74.896 177.232L75.302 178.184C78.998 177.288 81.196 175.244 81.196 172.052H79.936ZM75.554 172.052V173.004H80.468V172.052H75.554ZM80.748 173.256V174.18H84.136V173.256H80.748ZM80.636 175.678V176.588H84.066V175.678H80.636ZM76.954 178.478V179.416H83.954V180.69H76.996V183.602H78.144V181.586H85.102V178.478H76.954ZM76.996 183.042V183.966H85.522V183.042H76.996ZM97.1969 171.436V184.092H98.3169V171.436H97.1969ZM92.5909 175.972V176.938H95.0129V175.972H92.5909ZM94.6629 171.73V183.448H95.7549V171.73H94.6629ZM90.1549 173.396V175.006C90.1549 177.33 89.1749 179.64 87.4109 180.704L88.1249 181.572C89.9869 180.396 91.0509 177.778 91.0509 175.006V173.396H90.1549ZM90.3929 173.396V175.006C90.3929 177.652 91.4149 180.144 93.2629 181.264L93.9769 180.41C92.2409 179.402 91.2889 177.204 91.2889 175.006V173.396H90.3929ZM87.7609 172.906V173.872H93.5429V172.906H87.7609ZM103.524 172.094V173.382C103.524 175.314 102.292 177.022 100.388 177.722L101.004 178.66C103.118 177.834 104.49 175.818 104.49 173.382V172.094H103.524ZM103.734 172.094V173.466C103.734 175.664 105.12 177.54 107.15 178.296L107.766 177.386C105.946 176.756 104.686 175.174 104.686 173.466V172.094H103.734ZM109.11 171.436V179.108H110.272V171.436H109.11ZM109.95 174.698V175.678H112.148V174.698H109.95ZM106.24 179.458C103.65 179.458 102.082 180.312 102.082 181.768C102.082 183.224 103.65 184.064 106.24 184.064C108.83 184.064 110.398 183.224 110.398 181.768C110.398 180.312 108.83 179.458 106.24 179.458ZM106.24 180.382C108.116 180.382 109.264 180.886 109.264 181.768C109.264 182.65 108.116 183.154 106.24 183.154C104.364 183.154 103.216 182.65 103.216 181.768C103.216 180.886 104.364 180.382 106.24 180.382ZM113.827 179.99V180.97H114.653C116.683 180.97 117.915 180.928 119.385 180.634L119.259 179.668C117.845 179.948 116.655 179.99 114.653 179.99H113.827ZM113.827 172.878V180.354H114.933V173.83H118.811V172.878H113.827ZM114.597 176.224V177.162H118.615V176.224H114.597ZM122.969 171.436V184.092H124.089V171.436H122.969ZM120.967 176.504V177.47H123.389V176.504H120.967ZM120.183 171.702V183.462H121.289V171.702H120.183ZM127.21 183.098C126.92 183.098 126.678 183 126.482 182.804C126.286 182.608 126.188 182.365 126.188 182.076C126.188 181.787 126.286 181.544 126.482 181.348C126.678 181.152 126.92 181.054 127.21 181.054C127.49 181.054 127.728 181.152 127.924 181.348C128.12 181.544 128.218 181.787 128.218 182.076C128.218 182.365 128.12 182.608 127.924 182.804C127.728 183 127.49 183.098 127.21 183.098ZM127.21 177.218C126.92 177.218 126.678 177.12 126.482 176.924C126.286 176.728 126.188 176.485 126.188 176.196C126.188 175.907 126.286 175.664 126.482 175.468C126.678 175.272 126.92 175.174 127.21 175.174C127.49 175.174 127.728 175.272 127.924 175.468C128.12 175.664 128.218 175.907 128.218 176.196C128.218 176.485 128.12 176.728 127.924 176.924C127.728 177.12 127.49 177.218 127.21 177.218Z" fill="#1D1617"/>
<path d="M142.132 171.282V177.792H143.994V171.282H142.132ZM137.806 171.772V172.78C137.806 174.516 136.546 175.944 133.298 176.588L133.914 178.086C137.848 177.232 139.836 175.216 139.836 171.772H137.806ZM134.04 171.772V173.256H138.59V171.772H134.04ZM139.332 172.892V174.306H142.37V172.892H139.332ZM139.248 175.412V176.812H142.3V175.412H139.248ZM135.426 178.268V179.724H142.132V180.466H135.454V183.448H137.316V181.838H143.994V178.268H135.426ZM135.454 182.664V184.12H144.26V182.664H135.454ZM155.389 171.282V184.246H157.153V171.282H155.389ZM151.119 175.706V177.218H153.261V175.706H151.119ZM152.771 171.492V183.658H154.507V171.492H152.771ZM148.319 173.396V174.726C148.319 176.938 147.661 179.262 145.757 180.452L146.863 181.824C148.921 180.536 149.719 177.638 149.719 174.726V173.396H148.319ZM148.739 173.396V174.726C148.739 177.582 149.495 180.298 151.553 181.516L152.645 180.158C150.769 179.066 150.125 176.882 150.125 174.726V173.396H148.739ZM146.247 172.584V174.082H152.029V172.584H146.247ZM161.856 176.532V178.492H163.718V176.532H161.856ZM162.766 171.8C160.89 171.8 159.532 172.878 159.532 174.446C159.532 175.986 160.89 177.064 162.766 177.064C164.642 177.064 166 175.986 166 174.446C166 172.878 164.642 171.8 162.766 171.8ZM162.766 173.2C163.662 173.2 164.264 173.648 164.264 174.446C164.264 175.23 163.662 175.678 162.766 175.678C161.884 175.678 161.268 175.23 161.268 174.446C161.268 173.648 161.884 173.2 162.766 173.2ZM167.33 171.296V181.18H169.192V171.296H167.33ZM168.534 175.356V176.882H170.816V175.356H168.534ZM160.54 182.524V184.022H169.626V182.524H160.54ZM160.54 180.326V183.168H162.416V180.326H160.54ZM159.07 179.5C161.212 179.5 164.152 179.458 166.77 178.968L166.644 177.638C164.096 178.002 161.058 178.016 158.86 178.016L159.07 179.5ZM174.763 178.842V181.894H176.583V178.842H174.763ZM178.865 178.828V181.894H180.685V178.828H178.865ZM171.795 181.306V182.818H183.527V181.306H171.795ZM173.111 172.122V173.592H180.363V174.964H173.139V178.618H174.987V176.42H182.211V172.122H173.111ZM173.139 177.834V179.332H182.505V177.834H173.139Z" fill="#FFE060"/>
<path d="M145 28L124.375 48.625L115 39.25" stroke="#FFE060" stroke-width="3" stroke-linecap="round" stroke-linejoin="round"/>
<rect x="111" y="21" width="24" height="24" stroke="#FFE060"/>
</svg>
