<svg width="32" height="48" viewBox="0 0 32 48" fill="none" xmlns="http://www.w3.org/2000/svg">
<path d="M10.4458 40.556H0.785781V39.44H10.4458V40.556ZM10.2418 36.176L9.53378 37.268C8.74178 37.084 7.96178 36.728 7.19378 36.2C6.42578 35.672 5.89778 35.076 5.60978 34.412C5.34578 35.092 4.82178 35.704 4.03778 36.248C3.26178 36.784 2.47378 37.14 1.67378 37.316L1.01378 36.176C1.62178 36.088 2.21378 35.888 2.78978 35.576C3.37378 35.264 3.86978 34.844 4.27778 34.316C4.68578 33.78 4.88978 33.212 4.88978 32.612V31.904H6.35378V32.612C6.35378 32.972 6.43378 33.328 6.59378 33.68C6.76178 34.024 6.98178 34.332 7.25378 34.604C7.52578 34.876 7.82978 35.124 8.16578 35.348C8.50978 35.564 8.85778 35.744 9.20978 35.888C9.56178 36.024 9.90578 36.12 10.2418 36.176ZM15.7886 32.516C15.7886 35.708 14.4886 38.208 11.8886 40.016L11.0726 39.044C12.3206 38.22 13.2206 37.244 13.7726 36.116L11.4206 36.404L11.2166 35.24L14.1806 34.988C14.2846 34.572 14.3566 34.124 14.3966 33.644H11.6726V32.516H15.7886ZM18.1286 41.456H16.8086V36.584H15.5126V35.456H16.8086V31.46H18.1286V41.456ZM20.2646 41.948H18.9326V31.256H20.2646V41.948ZM30.3234 41.9H22.7274V39.2H28.5354V38.636H22.7154V37.52H25.6554V36.836H21.5514V35.708H31.2114V36.836H27.0594V37.52H29.9394V40.196H24.1194V40.76H30.3234V41.9ZM30.7434 34.28L30.1314 35.36C29.3474 35.28 28.5994 35.08 27.8874 34.76C27.1834 34.432 26.6834 34.024 26.3874 33.536C26.1234 34.048 25.6514 34.464 24.9714 34.784C24.2914 35.104 23.5154 35.3 22.6434 35.372L22.0554 34.304C22.9114 34.264 23.6514 34.104 24.2754 33.824C24.8994 33.544 25.3114 33.16 25.5114 32.672H22.5474V31.58H30.2514V32.672H27.2994C27.5154 33.152 27.9554 33.536 28.6194 33.824C29.2834 34.104 29.9914 34.256 30.7434 34.28Z" fill="black"/>
<path fill-rule="evenodd" clip-rule="evenodd" d="M20.8046 2.78711H11.3554C8.06251 2.78711 5.99805 4.95483 5.99805 8.02248V16.3002C5.99805 19.3678 8.05161 21.5355 11.3554 21.5355H20.8035C24.1073 21.5355 26.163 19.3678 26.163 16.3002V8.02248C26.163 4.95483 24.1073 2.78711 20.8046 2.78711Z" stroke="#130F26" stroke-width="1.5" stroke-linecap="round" stroke-linejoin="round"/>
<path d="M19.7763 14.2061L16.0801 12.1559V7.73633" stroke="#130F26" stroke-width="1.5" stroke-linecap="round" stroke-linejoin="round"/>
</svg>
