<svg width="29" height="50" viewBox="0 0 29 50" fill="none" xmlns="http://www.w3.org/2000/svg">
<path d="M6.32942 42.508V34.276H8.40542L10.4094 40.48H10.4454L12.4494 34.276H14.5134V42.508H13.0374V36.112H12.9894L10.9254 42.508H9.71342L7.66142 36.112H7.62542V42.508H6.32942ZM18.3387 42.508V39.316L15.6747 34.276H17.2467L19.1307 37.972H19.1667L21.0507 34.276H22.4547L19.8147 39.316V42.508H18.3387Z" fill="black"/>
<path fill-rule="evenodd" clip-rule="evenodd" d="M14.0618 16.7412C9.52379 16.7412 5.64844 17.3791 5.64844 19.9339C5.64844 22.4887 9.49921 23.1495 14.0618 23.1495C18.5998 23.1495 22.474 22.5106 22.474 19.9568C22.474 17.403 18.6244 16.7412 14.0618 16.7412Z" stroke="#130F26" stroke-width="1.5" stroke-linecap="round" stroke-linejoin="round"/>
<path fill-rule="evenodd" clip-rule="evenodd" d="M14.0609 13.0973C17.0389 13.0973 19.4526 10.8521 19.4526 8.08329C19.4526 5.31447 17.0389 3.07031 14.0609 3.07031C11.0828 3.07031 8.668 5.31447 8.668 8.08329C8.65794 10.8428 11.056 13.088 14.0229 13.0973H14.0609Z" stroke="#130F26" stroke-width="1.42857" stroke-linecap="round" stroke-linejoin="round"/>
</svg>
