<svg width="78" height="78" viewBox="0 0 78 78" fill="none" xmlns="http://www.w3.org/2000/svg">
<circle cx="39" cy="39" r="39" fill="#D076CD"/>
<path d="M36.3019 48.3678V44.9178C36.3018 44.0402 37.0173 43.3272 37.9036 43.3213H41.1505C42.0411 43.3213 42.7631 44.0361 42.7631 44.9178V44.9178V48.3785C42.7629 49.1236 43.3635 49.7325 44.1159 49.75H46.2805C48.4383 49.75 50.1875 48.0183 50.1875 45.8821V45.8821V36.0676C50.176 35.2272 49.7774 34.438 49.1052 33.9247L41.7024 28.021C40.4056 26.993 38.562 26.993 37.2651 28.021L29.8948 33.9354C29.22 34.4467 28.8208 35.2371 28.8125 36.0783V45.8821C28.8125 48.0183 30.5617 49.75 32.7195 49.75H34.8841C35.6551 49.75 36.2802 49.1312 36.2802 48.3678V48.3678" stroke="white" stroke-width="1.5" stroke-linecap="round" stroke-linejoin="round"/>
</svg>
