<svg width="42" height="49" viewBox="0 0 42 49" fill="none" xmlns="http://www.w3.org/2000/svg">
<path d="M6.10238 42.96H4.68638V39.156H0.594375V38.052H10.2544V39.156H6.10238V42.96ZM9.85838 36.024L9.24638 37.164C8.43838 37.044 7.66238 36.752 6.91838 36.288C6.18238 35.824 5.68638 35.304 5.43038 34.728C5.19838 35.304 4.71438 35.824 3.97838 36.288C3.25038 36.744 2.47038 37.04 1.63838 37.176L1.03838 36.024C2.01438 35.92 2.86638 35.588 3.59438 35.028C4.32238 34.468 4.68638 33.804 4.68638 33.036V32.484H6.17438V33.036C6.17438 33.548 6.36238 34.028 6.73838 34.476C7.12238 34.924 7.59038 35.28 8.14238 35.544C8.70238 35.808 9.27438 35.968 9.85838 36.024ZM19.7132 35.724C19.7132 36.548 19.3532 37.224 18.6332 37.752C17.9212 38.272 16.9812 38.532 15.8132 38.532C14.6532 38.532 13.7132 38.272 12.9932 37.752C12.2812 37.224 11.9252 36.548 11.9252 35.724C11.9252 34.892 12.2812 34.212 12.9932 33.684C13.7132 33.148 14.6532 32.88 15.8132 32.88C16.9812 32.88 17.9212 33.148 18.6332 33.684C19.3532 34.212 19.7132 34.892 19.7132 35.724ZM20.6372 41.616H10.9772V40.488H13.1372V38.712L14.5412 38.772V40.488H17.0492V38.772L18.4532 38.712V40.488H20.6372V41.616ZM17.5892 36.924C18.0452 36.612 18.2732 36.212 18.2732 35.724C18.2732 35.236 18.0452 34.836 17.5892 34.524C17.1412 34.212 16.5492 34.056 15.8132 34.056C15.0772 34.056 14.4852 34.212 14.0372 34.524C13.5892 34.836 13.3652 35.236 13.3652 35.724C13.3652 36.212 13.5892 36.612 14.0372 36.924C14.4852 37.228 15.0772 37.38 15.8132 37.38C16.5492 37.38 17.1412 37.228 17.5892 36.924ZM30.732 37.332L30.024 38.424C29.224 38.24 28.456 37.908 27.72 37.428C26.984 36.94 26.472 36.364 26.184 35.7C25.928 36.372 25.424 36.952 24.672 37.44C23.928 37.92 23.148 38.252 22.332 38.436L21.66 37.296C22.244 37.216 22.804 37.048 23.34 36.792C23.884 36.528 24.356 36.164 24.756 35.7C25.156 35.236 25.384 34.728 25.44 34.176H22.188V33.072H30.192V34.176H26.94C26.996 34.72 27.232 35.228 27.648 35.7C28.072 36.172 28.552 36.54 29.088 36.804C29.632 37.068 30.18 37.244 30.732 37.332ZM31.02 41.604H21.36V40.512H25.452V38.124H26.868V40.512H31.02V41.604ZM40.0948 32.256V36.372H41.6308V37.524H40.0948V42.948H38.7028V32.256H40.0948ZM38.1748 39.348C38.0788 39.468 37.9388 39.644 37.7548 39.876C37.5788 40.108 37.4428 40.28 37.3468 40.392C36.8588 40.08 36.3668 39.64 35.8708 39.072C35.3748 38.504 35.0428 37.948 34.8748 37.404C34.6988 38.004 34.3708 38.608 33.8908 39.216C33.4108 39.816 32.8948 40.28 32.3428 40.608C31.9508 40.128 31.6628 39.788 31.4788 39.588C33.2468 38.452 34.1308 36.796 34.1308 34.62V33.156H35.5828V34.548C35.5828 35.588 35.8068 36.516 36.2548 37.332C36.7108 38.148 37.3508 38.82 38.1748 39.348Z" fill="black"/>
<path fill-rule="evenodd" clip-rule="evenodd" d="M26.7182 14.4676C27.4492 14.4676 28.0627 15.0476 27.951 15.7417C27.2953 19.825 23.6598 22.8568 19.2752 22.8568C14.4241 22.8568 10.4922 19.0761 10.4922 14.4127C10.4922 10.5706 13.5278 6.99168 16.9454 6.18247C17.6798 6.00812 18.4324 6.50483 18.4324 7.23181C18.4324 12.1572 18.6046 13.4314 19.5774 14.1244C20.5501 14.8173 21.6939 14.4676 26.7182 14.4676Z" stroke="black" stroke-width="1.5" stroke-linecap="round" stroke-linejoin="round"/>
<path fill-rule="evenodd" clip-rule="evenodd" d="M31.4998 10.3662C31.558 7.20177 27.5154 2.1009 22.5891 2.18862C22.206 2.1952 21.8992 2.50221 21.8821 2.86954C21.7578 5.47151 21.9254 8.84322 22.0189 10.3717C22.0475 10.8476 22.4363 11.2215 22.9301 11.2489C24.5642 11.3388 28.1985 11.4616 30.8658 11.0735C31.2284 11.0209 31.4941 10.7182 31.4998 10.3662Z" stroke="black" stroke-width="1.5" stroke-linecap="round" stroke-linejoin="round"/>
</svg>
