<svg width="45" height="48" viewBox="0 0 45 48" fill="none" xmlns="http://www.w3.org/2000/svg">
<path d="M5.1742 32.54V39.164H0.842203V32.54H5.1742ZM9.6142 41.948H8.2702V36.584H7.4062V41.456H6.0862V31.448H7.4062V35.456H8.2702V31.256H9.6142V41.948ZM3.8542 38.084V33.62H2.1622V38.084H3.8542ZM19.757 41.876H11.993V39.38H17.945V38.9H11.993V37.868H15.005V37.352H10.901V36.308H20.561V37.352H16.409V37.868H19.337V40.352H13.409V40.844H19.757V41.876ZM20.141 34.928L19.601 36.032C18.785 35.976 18.009 35.812 17.273 35.54C16.545 35.268 16.029 34.928 15.725 34.52C15.421 34.944 14.913 35.292 14.201 35.564C13.497 35.836 12.713 35.992 11.849 36.032L11.285 34.928C12.093 34.936 12.821 34.84 13.469 34.64C14.125 34.44 14.581 34.176 14.837 33.848H11.849V32.792H19.601V33.848H16.649C16.913 34.168 17.369 34.428 18.017 34.628C18.673 34.82 19.381 34.92 20.141 34.928ZM13.949 32.384V31.328H17.501V32.384H13.949ZM32.9802 36.08H29.9442V36.764H34.0962V37.892H24.4362V36.764H28.5402V36.08H25.7082V31.652H32.8842V32.744H27.1122V33.344H32.5242V34.4H27.1122V34.988H32.9802V36.08ZM32.0682 38.804C32.6922 39.14 33.0042 39.596 33.0042 40.172C33.0042 40.748 32.6922 41.204 32.0682 41.54C31.4522 41.884 30.5202 42.056 29.2722 42.056C28.0242 42.056 27.0882 41.884 26.4642 41.54C25.8482 41.204 25.5402 40.748 25.5402 40.172C25.5402 39.596 25.8482 39.14 26.4642 38.804C27.0882 38.46 28.0202 38.288 29.2602 38.288C30.5162 38.288 31.4522 38.46 32.0682 38.804ZM31.5522 40.172C31.5522 39.924 31.3482 39.732 30.9402 39.596C30.5322 39.452 29.9722 39.38 29.2602 39.38C28.5642 39.38 28.0122 39.452 27.6042 39.596C27.1962 39.732 26.9922 39.924 26.9922 40.172C26.9922 40.412 27.1962 40.6 27.6042 40.736C28.0122 40.872 28.5642 40.94 29.2602 40.94C29.9722 40.94 30.5322 40.872 30.9402 40.736C31.3482 40.6 31.5522 40.412 31.5522 40.172ZM41.779 41.456H40.471V37.856H39.115V36.716H40.471V35.204H39.379V34.064H40.471V31.46H41.779V41.456ZM43.915 41.948H42.583V31.256H43.915V41.948ZM39.271 32.516C39.287 35.732 38.019 38.18 35.467 39.86L34.555 38.888C35.571 38.272 36.363 37.516 36.931 36.62C37.499 35.716 37.827 34.724 37.915 33.644H35.227V32.516H39.271Z" fill="black"/>
<path d="M32.5854 14.5886H28.1728C26.5525 14.5877 25.2393 13.3676 25.2383 11.8612C25.2383 10.3548 26.5525 9.13471 28.1728 9.13379H32.5854" stroke="#130F26" stroke-width="1.5" stroke-linecap="round" stroke-linejoin="round"/>
<path d="M28.6724 11.7987H28.3327" stroke="#130F26" stroke-width="1.5" stroke-linecap="round" stroke-linejoin="round"/>
<path fill-rule="evenodd" clip-rule="evenodd" d="M17.4446 3.04004H26.8659C30.0249 3.04004 32.5859 5.4211 32.5859 8.35817V15.6316C32.5859 18.5687 30.0249 20.9497 26.8659 20.9497H17.4446C14.2856 20.9497 11.7246 18.5687 11.7246 15.6316V8.35817C11.7246 5.4211 14.2856 3.04004 17.4446 3.04004Z" stroke="#130F26" stroke-width="1.5" stroke-linecap="round" stroke-linejoin="round"/>
<path d="M16.668 7.63954H22.5528" stroke="#130F26" stroke-width="1.5" stroke-linecap="round" stroke-linejoin="round"/>
</svg>
