<svg width="19" height="17" viewBox="0 0 19 17" fill="none" xmlns="http://www.w3.org/2000/svg">
<path fill-rule="evenodd" clip-rule="evenodd" d="M14.6824 12.9112C12.3903 14.9488 8.99624 15.389 6.21872 14.2473C5.80869 14.1005 5.47252 13.9819 5.15294 13.9819C4.26277 13.9866 3.15478 14.7538 2.57893 14.2426C2.00307 13.7306 2.86685 12.745 2.86685 11.949C2.86685 11.6648 2.73872 11.3714 2.57365 11.0062C1.28853 8.53767 1.78449 5.51971 4.0766 3.48272C7.0026 0.880871 11.7564 0.880871 14.6824 3.48205C17.6137 6.08792 17.6084 10.31 14.6824 12.9112Z" stroke="#130F26" stroke-width="1.5" stroke-linecap="round" stroke-linejoin="round"/>
<path d="M12.3326 8.47298H12.3393" stroke="#130F26" stroke-width="2" stroke-linecap="round" stroke-linejoin="round"/>
<path d="M9.32866 8.47298H9.33541" stroke="#130F26" stroke-width="2" stroke-linecap="round" stroke-linejoin="round"/>
<path d="M6.32084 8.47298H6.32759" stroke="#130F26" stroke-width="2" stroke-linecap="round" stroke-linejoin="round"/>
</svg>
